# This file uses meters as units for non-parametric coordinates.

mtllib pared lateral.mtl
g default
v -2400.000000 50.000000 2399.152832
v -2400.000000 50.000000 -2397.870605
v -2400.000000 3050.000000 2399.152832
v -2400.000000 3050.000000 -2397.870605
v -2500.000000 3050.000000 2399.152832
v -2500.000000 3050.000000 -2397.870605
v -2500.000000 50.000000 2399.152832
v -2500.000000 50.000000 -2397.870605
v -2400.000000 1914.018433 -2397.870605
v -2400.000000 1914.018433 2399.152832
v -2500.000000 1914.018433 2399.152832
v -2500.000000 1914.018433 -2397.870605
v -2400.000000 1568.371460 -2397.870605
v -2400.000000 1568.371460 2399.152832
v -2500.000000 1568.371460 2399.152832
v -2500.000000 1568.371460 -2397.870605
vt 0.473146 0.753298
vt 0.473146 0.000000
vt 0.711583 0.000000
vt 0.711583 0.753298
vt 0.961996 0.000000
vt 0.961996 0.753297
vt 0.946293 0.753297
vt 0.946293 0.000000
vt 0.238437 0.000000
vt 0.238437 0.753298
vt 0.000000 0.753298
vt 0.000000 0.000000
vt 0.965295 0.753299
vt 0.965295 0.000000
vt 0.980998 0.000000
vt 0.980998 0.753299
vt 1.000000 0.471104
vt 0.984297 0.471104
vt 0.984296 0.232667
vt 1.000000 0.232667
vt 0.984297 0.473479
vt 1.000000 0.473479
vt 1.000000 0.711916
vt 0.984296 0.711916
vt 0.765862 0.753298
vt 0.765862 0.000000
vt 0.944250 0.000000
vt 0.944250 0.753298
vt 0.984296 0.766194
vt 1.000000 0.766194
vt 1.000000 0.944582
vt 0.984297 0.944582
vt 0.471104 0.000000
vt 0.471104 0.753298
vt 0.292715 0.753298
vt 0.292715 0.000000
vt 1.000000 0.178388
vt 0.984296 0.178388
vt 0.984297 0.000000
vt 1.000000 0.000000
vn 1.000000 0.000000 0.000000
vn 1.000000 0.000000 0.000000
vn 1.000000 0.000000 0.000000
vn 1.000000 0.000000 0.000000
vn 0.000000 1.000000 0.000000
vn 0.000000 1.000000 0.000000
vn 0.000000 1.000000 0.000000
vn 0.000000 1.000000 0.000000
vn -1.000000 0.000000 0.000000
vn -1.000000 0.000000 0.000000
vn -1.000000 0.000000 0.000000
vn -1.000000 0.000000 0.000000
vn 0.000000 -1.000000 0.000000
vn 0.000000 -1.000000 0.000000
vn 0.000000 -1.000000 0.000000
vn 0.000000 -1.000000 0.000000
vn 0.000000 0.000000 -1.000000
vn 0.000000 0.000000 -1.000000
vn 0.000000 0.000000 -1.000000
vn 0.000000 0.000000 -1.000000
vn 0.000000 0.000000 1.000000
vn 0.000000 0.000000 1.000000
vn 0.000000 0.000000 1.000000
vn 0.000000 0.000000 1.000000
vn 1.000000 0.000000 0.000000
vn 1.000000 0.000000 0.000000
vn 1.000000 0.000000 0.000000
vn 1.000000 0.000000 0.000000
vn 0.000000 0.000000 1.000000
vn 0.000000 0.000000 1.000000
vn 0.000000 0.000000 1.000000
vn 0.000000 0.000000 1.000000
vn -1.000000 0.000000 0.000000
vn -1.000000 0.000000 0.000000
vn -1.000000 0.000000 0.000000
vn -1.000000 0.000000 0.000000
vn 0.000000 0.000000 -1.000000
vn 0.000000 0.000000 -1.000000
vn 0.000000 0.000000 -1.000000
vn 0.000000 0.000000 -1.000000
s 1
g pared_lateral
usemtl initialShadingGroup
f 1/1/1 2/2/2 13/3/3 14/4/4
s off
f 3/5/5 4/6/6 6/7/7 5/8/8
s 2
f 15/9/9 16/10/10 8/11/11 7/12/12
s off
f 7/13/13 8/14/14 2/15/15 1/16/16
s 3
f 2/17/17 8/18/18 16/19/19 13/20/20
s 4
f 7/21/21 1/22/22 14/23/23 15/24/24
s 1
f 10/25/25 9/26/26 4/27/27 3/28/28
s 4
f 11/29/29 10/30/30 3/31/31 5/32/32
s 2
f 5/33/33 6/34/34 12/35/35 11/36/36
s 3
f 9/37/37 12/38/38 6/39/39 4/40/40
s 1
f 14/4/4 13/3/3 9/26/26 10/25/25
s 4
f 15/24/24 14/23/23 10/30/30 11/29/29
s 2
f 11/36/36 12/35/35 16/10/10 15/9/9
s 3
f 13/20/20 16/19/19 12/38/38 9/37/37
